<?xml version="1.0" encoding="UTF-8" standalone="no"?>
<!DOCTYPE svg PUBLIC "-//W3C//DTD SVG 1.1//EN" "http://www.w3.org/Graphics/SVG/1.1/DTD/svg11.dtd">
<svg xmlns="http://www.w3.org/2000/svg" version="1.1" viewBox="0.00 0.00 57.00 612.00">
<g stroke-width="2.00" fill="none" stroke-linecap="butt">
<path stroke="#d72651" vector-effect="non-scaling-stroke" d="
  M 39.80 11.58
  L 35.13 11.28"
/>
<path stroke="#d72651" vector-effect="non-scaling-stroke" d="
  M 30.69 14.96
  Q 29.84 15.68 30.17 15.81"
/>
<path stroke="#aa86bb" vector-effect="non-scaling-stroke" d="
  M 30.17 15.81
  L 30.02 24.75"
/>
<path stroke="#886cb9" vector-effect="non-scaling-stroke" d="
  M 30.02 24.75
  L 29.99 46.98"
/>
<path stroke="#886cb9" vector-effect="non-scaling-stroke" d="
  M 24.13 46.99
  L 23.95 25.53"
/>
<path stroke="#aa86bb" vector-effect="non-scaling-stroke" d="
  M 23.95 25.53
  L 23.85 15.78"
/>
<path stroke="#d72651" vector-effect="non-scaling-stroke" d="
  M 23.85 15.78
  Q 23.54 14.90 23.11 14.75"
/>
<path stroke="#d72651" vector-effect="non-scaling-stroke" d="
  M 18.73 11.36
  Q 17.12 11.10 14.32 12.25"
/>
<path stroke="#916d94" vector-effect="non-scaling-stroke" d="
  M 37.35 15.94
  L 30.17 15.81"
/>
<path stroke="#916d94" vector-effect="non-scaling-stroke" d="
  M 23.85 15.78
  L 16.64 15.94"
/>
<path stroke="#42b4fc" vector-effect="non-scaling-stroke" d="
  M 46.96 24.39
  Q 39.56 24.81 31.99 24.62
  Q 31.38 25.03 30.92 24.53
  Q 30.61 24.19 30.27 24.51
  L 30.02 24.75"
/>
<path stroke="#42b4fc" vector-effect="non-scaling-stroke" d="
  M 23.95 25.53
  Q 21.15 24.89 16.25 25.36
  Q 12.80 25.70 7.03 24.76"
/>
</g>
<g fill="#000000">
<path d="
  M 0.00 76.15
  L 0.00 73.67
  C 1.62 66.57 6.52 64.72 13.43 64.92
  Q 20.17 65.11 25.60 65.02
  C 33.47 64.88 38.41 72.86 34.66 79.86
  C 32.26 84.34 28.44 84.99 23.29 84.99
  Q 17.13 84.99 10.24 85.03
  Q 1.89 85.08 0.00 76.15
  Z
  M 33.89 74.62
  A 7.56 7.56 0.0 0 0 26.33 67.06
  L 9.67 67.06
  A 7.56 7.56 0.0 0 0 2.11 74.62
  L 2.11 75.38
  A 7.56 7.56 0.0 0 0 9.67 82.94
  L 26.33 82.94
  A 7.56 7.56 0.0 0 0 33.89 75.38
  L 33.89 74.62
  Z"
/>
<path d="
  M 11.55 73.76
  L 13.59 74.49
  A 0.54 0.54 0.0 0 1 13.59 75.51
  L 11.55 76.24
  A 0.54 0.54 0.0 0 0 11.23 76.56
  L 10.50 78.60
  A 0.54 0.54 0.0 0 1 9.48 78.60
  L 8.75 76.56
  A 0.54 0.54 0.0 0 0 8.43 76.24
  L 6.39 75.51
  A 0.54 0.54 0.0 0 1 6.39 74.49
  L 8.43 73.76
  A 0.54 0.54 0.0 0 0 8.75 73.44
  L 9.48 71.40
  A 0.54 0.54 0.0 0 1 10.50 71.40
  L 11.23 73.44
  A 0.54 0.54 0.0 0 0 11.55 73.76
  Z"
/>
<path d="
  M 28.97 72.51
  A 1.47 1.47 0.0 0 1 27.50 73.98
  A 1.47 1.47 0.0 0 1 26.03 72.51
  A 1.47 1.47 0.0 0 1 27.50 71.04
  A 1.47 1.47 0.0 0 1 28.97 72.51
  Z"
/>
<path d="
  M 25.97 77.51
  A 1.47 1.47 0.0 0 1 24.50 78.98
  A 1.47 1.47 0.0 0 1 23.03 77.51
  A 1.47 1.47 0.0 0 1 24.50 76.04
  A 1.47 1.47 0.0 0 1 25.97 77.51
  Z"
/>
<path d="
  M 50.97 105.00
  A 8.97 8.97 0.0 0 1 42.00 113.97
  A 8.97 8.97 0.0 0 1 33.03 105.00
  A 8.97 8.97 0.0 0 1 42.00 96.03
  A 8.97 8.97 0.0 0 1 50.97 105.00
  Z
  M 45.23 100.50
  A 1.73 1.73 0.0 0 0 43.50 98.77
  A 1.73 1.73 0.0 0 0 41.77 100.50
  A 1.73 1.73 0.0 0 0 43.50 102.23
  A 1.73 1.73 0.0 0 0 45.23 100.50
  Z
  M 40.73 105.21
  C 40.07 106.64 39.13 107.83 39.55 109.52
  C 39.99 111.27 42.32 111.28 43.50 110.42
  Q 44.30 109.83 43.32 109.68
  Q 42.99 109.63 42.65 109.64
  Q 41.83 109.68 42.18 108.93
  L 43.57 105.97
  A 1.91 1.90 30.8 0 0 42.97 103.63
  Q 41.54 102.59 39.89 103.29
  Q 39.43 103.48 39.27 103.94
  A 0.41 0.40 -9.1 0 0 39.90 104.39
  Q 40.22 104.15 40.53 104.39
  Q 40.96 104.72 40.73 105.21
  Z"
/>
<path d="
  M 25.35 106.99
  Q 20.56 98.21 11.80 100.55
  Q 7.22 101.77 4.80 106.87
  A 0.86 0.84 2.3 0 1 4.31 107.31
  Q 3.22 107.70 2.96 106.49
  A 0.95 0.94 52.1 0 1 3.04 105.84
  Q 7.23 97.74 15.85 98.09
  C 21.29 98.31 25.97 102.26 27.48 107.54
  Q 27.61 107.97 28.06 107.99
  L 29.53 108.04
  A 0.58 0.57 21.3 0 1 29.95 108.99
  L 27.54 111.77
  Q 27.01 112.39 26.47 111.78
  L 24.21 109.22
  Q 23.75 108.70 24.27 108.24
  Q 24.52 108.02 24.85 107.98
  Q 25.82 107.85 25.35 106.99
  Z"
/>
<path d="
  M 14.9913 112.9200
  A 4.98 4.49 90.1 0 1 10.5100 107.9322
  A 4.98 4.49 90.1 0 1 15.0087 102.9600
  A 4.98 4.49 90.1 0 1 19.4900 107.9478
  A 4.98 4.49 90.1 0 1 14.9913 112.9200
  Z
  M 15.0157 110.9400
  A 3.00 2.51 89.7 0 0 17.5100 107.9269
  A 3.00 2.51 89.7 0 0 14.9843 104.9400
  A 3.00 2.51 89.7 0 0 12.4900 107.9531
  A 3.00 2.51 89.7 0 0 15.0157 110.9400
  Z"
/>
<path d="
  M 0.00 113.73
  L 0.00 113.00
  L 2.61 110.26
  Q 3.08 109.76 3.54 110.27
  L 5.79 112.76
  Q 6.19 113.20 5.81 113.67
  Q 5.52 114.03 5.03 114.08
  Q 4.24 114.17 4.63 114.87
  L 6.16 117.61
  Q 6.65 118.49 7.13 117.61
  C 9.20 113.78 12.82 113.77 16.80 113.97
  Q 21.12 114.18 22.97 117.75
  Q 23.34 118.46 23.73 117.77
  L 25.38 114.88
  A 0.65 0.64 -61.4 0 1 26.24 114.62
  L 26.55 114.79
  A 0.99 0.98 27.7 0 1 26.97 116.13
  Q 22.07 125.31 12.55 123.64
  Q 5.25 122.37 2.51 114.60
  Q 2.36 114.18 1.92 114.09
  L 0.00 113.73
  Z
  M 21.29 118.92
  A 6.29 3.05 0.0 0 0 15.00 115.87
  A 6.29 3.05 0.0 0 0 8.71 118.92
  A 6.29 3.05 0.0 0 0 15.00 121.97
  A 6.29 3.05 0.0 0 0 21.29 118.92
  Z"
/>
<path d="
  M 29.0154 152.7956
  A 5.18 5.18 0.0 0 1 23.8444 157.9846
  L 6.2244 158.0154
  A 5.18 5.18 0.0 0 1 1.0354 152.8444
  L 1.0046 135.2044
  A 5.18 5.18 0.0 0 1 6.1756 130.0154
  L 23.7956 129.9846
  A 5.18 5.18 0.0 0 1 28.9846 135.1556
  L 29.0154 152.7956
  Z
  M 7.99 134.47
  L 7.20 133.00
  A 1.91 1.91 0.0 0 0 3.88 132.91
  Q 2.65 134.95 3.12 137.41
  Q 3.24 138.04 3.87 138.11
  Q 7.27 138.47 8.08 135.26
  A 1.11 1.06 -52.8 0 0 7.99 134.47
  Z
  M 9.50 133.08
  C 10.96 134.79 10.07 135.52 9.38 137.13
  A 0.52 0.52 0.0 0 0 9.74 137.84
  Q 11.78 138.29 13.51 137.74
  Q 14.18 137.53 14.47 136.89
  Q 15.53 134.61 14.03 132.76
  Q 13.39 131.98 12.39 131.99
  L 9.99 132.02
  Q 8.60 132.03 9.50 133.08
  Z
  M 17.13 135.61
  L 16.43 136.98
  Q 16.06 137.71 16.87 137.87
  Q 17.99 138.10 19.13 137.96
  C 21.59 137.67 21.95 134.73 20.67 132.99
  C 19.69 131.64 18.02 131.91 16.61 132.05
  Q 16.03 132.11 16.29 132.64
  L 17.14 134.33
  Q 17.46 134.97 17.13 135.61
  Z
  M 23.85 135.51
  L 22.81 137.12
  Q 22.51 137.59 23.05 137.75
  Q 24.75 138.25 26.32 137.95
  Q 26.78 137.86 26.88 137.40
  C 27.50 134.36 26.57 131.68 22.90 132.03
  Q 22.29 132.08 22.63 132.60
  L 23.85 134.46
  Q 24.19 134.98 23.85 135.51
  Z
  M 26.13 139.99
  L 3.87 139.99
  A 0.89 0.89 0.0 0 0 2.98 140.88
  L 2.98 152.50
  A 3.53 3.45 -90.0 0 0 6.43 156.03
  L 23.57 156.03
  A 3.53 3.45 90.0 0 0 27.02 152.50
  L 27.02 140.88
  A 0.89 0.89 0.0 0 0 26.13 139.99
  Z"
/>
<path d="
  M 13.57 143.74
  L 18.56 147.18
  A 0.99 0.99 0.0 0 1 18.56 148.81
  L 13.54 152.21
  A 0.99 0.99 0.0 0 1 11.99 151.39
  L 12.02 144.55
  A 0.99 0.99 0.0 0 1 13.57 143.74
  Z"
/>
<path d="
  M 0.00 178.22
  L 0.00 175.67
  C 1.46 169.72 5.62 167.77 11.52 167.92
  Q 16.84 168.06 21.10 168.03
  C 30.44 167.96 33.51 181.42 24.73 185.14
  Q 22.63 186.03 18.40 185.99
  C 11.05 185.92 2.35 187.93 0.00 178.22
  Z
  M 10.61 175.82
  A 0.70 0.70 0.0 0 1 10.13 175.34
  L 9.63 173.60
  A 0.70 0.70 0.0 0 0 8.28 173.61
  L 7.80 175.35
  A 0.70 0.70 0.0 0 1 7.32 175.83
  L 5.58 176.33
  A 0.70 0.70 0.0 0 0 5.59 177.68
  L 7.33 178.16
  A 0.70 0.70 0.0 0 1 7.81 178.64
  L 8.31 180.38
  A 0.70 0.70 0.0 0 0 9.66 180.37
  L 10.14 178.63
  A 0.70 0.70 0.0 0 1 10.62 178.15
  L 12.36 177.65
  A 0.70 0.70 0.0 0 0 12.35 176.30
  L 10.61 175.82
  Z
  M 24.96 174.50
  A 1.47 1.47 0.0 0 0 23.49 173.03
  A 1.47 1.47 0.0 0 0 22.02 174.50
  A 1.47 1.47 0.0 0 0 23.49 175.97
  A 1.47 1.47 0.0 0 0 24.96 174.50
  Z
  M 20.96 179.50
  A 1.47 1.47 0.0 0 0 19.49 178.03
  A 1.47 1.47 0.0 0 0 18.02 179.50
  A 1.47 1.47 0.0 0 0 19.49 180.97
  A 1.47 1.47 0.0 0 0 20.96 179.50
  Z"
/>
<path d="
  M 18.61 220.51
  Q 18.47 223.05 16.36 224.17
  Q 12.06 226.47 9.18 222.11
  Q 8.91 221.71 8.43 221.74
  C 7.58 221.80 6.64 222.18 5.79 221.91
  C 1.79 220.63 2.82 216.47 4.50 213.78
  C 5.57 212.07 5.32 210.36 5.11 208.48
  C 4.78 205.35 6.43 202.08 8.72 200.11
  Q 9.27 199.64 9.12 198.93
  C 8.47 195.86 11.98 194.26 14.46 195.65
  C 15.29 196.12 15.44 196.89 15.86 197.66
  Q 16.11 198.11 16.62 198.26
  Q 23.05 200.13 24.09 207.30
  A 2.10 1.99 22.6 0 0 24.54 208.31
  Q 25.75 209.75 27.16 211.10
  C 29.58 213.41 29.85 217.54 26.05 218.40
  Q 22.80 219.13 19.36 219.68
  A 0.89 0.89 0.0 0 0 18.61 220.51
  Z
  M 12.78 198.25
  Q 13.01 198.19 13.25 198.13
  Q 13.88 197.99 13.50 197.46
  Q 13.02 196.79 12.18 197.08
  Q 11.18 197.43 11.22 198.41
  Q 11.24 198.80 11.59 198.64
  Q 11.71 198.58 11.84 198.53
  Q 12.30 198.37 12.78 198.25
  Z
  M 6.58 214.06
  Q 5.40 216.02 5.04 218.03
  A 1.67 1.66 -0.1 0 0 6.99 219.96
  Q 15.89 218.30 25.39 216.56
  C 27.14 216.25 27.40 214.44 26.30 213.21
  C 24.14 210.77 22.49 209.80 21.86 206.34
  C 21.18 202.54 17.49 199.62 13.90 200.09
  Q 8.85 200.74 7.36 205.99
  C 6.57 208.79 8.21 211.34 6.58 214.06
  Z
  M 16.46 220.25
  L 11.35 221.19
  A 0.13 0.13 0.0 0 0 11.25 221.34
  L 11.25 221.39
  A 2.55 1.96 -10.4 0 0 14.12 222.85
  L 14.47 222.79
  A 2.55 1.96 -10.4 0 0 16.62 220.40
  L 16.62 220.35
  A 0.13 0.13 0.0 0 0 16.46 220.25
  Z"
/>
<path d="
  M 0.00 252.98
  L 0.00 241.22
  Q 0.42 240.03 0.96 238.89
  C 1.75 237.18 1.74 235.62 3.02 234.09
  Q 3.37 233.67 3.50 233.13
  Q 4.75 228.07 9.95 228.01
  Q 14.96 227.96 20.20 228.02
  Q 25.25 228.09 26.48 233.09
  A 2.66 2.60 -72.0 0 0 26.97 234.08
  Q 28.24 235.67 28.53 237.69
  A 2.42 2.37 25.3 0 0 28.90 238.69
  Q 29.95 240.28 29.96 242.11
  Q 29.99 246.40 30.04 251.26
  C 30.10 255.91 27.01 258.00 22.71 258.00
  Q 15.26 258.01 7.76 257.99
  Q 1.59 257.98 0.00 252.98
  Z
  M 22.31 230.44
  Q 21.48 230.02 20.56 230.01
  Q 14.72 229.93 9.06 230.07
  Q 7.13 230.12 6.23 231.60
  Q 5.97 232.01 6.46 232.01
  L 23.50 232.01
  Q 24.26 232.01 23.73 231.47
  Q 23.10 230.83 22.31 230.44
  Z
  M 24.84 236.13
  Q 25.10 236.22 25.34 236.31
  Q 26.22 236.63 25.76 235.81
  Q 24.77 234.09 22.65 234.05
  Q 15.41 233.92 7.40 234.05
  Q 5.35 234.08 4.29 235.68
  Q 4.04 236.05 4.49 236.05
  L 23.99 235.98
  Q 24.43 235.98 24.84 236.13
  Z
  M 12.25 248.14
  L 10.33 246.19
  A 1.31 1.27 -15.8 0 0 9.68 245.84
  Q 7.36 245.31 7.80 247.60
  A 1.48 1.47 -73.5 0 0 8.20 248.34
  L 11.75 251.86
  A 1.52 1.52 0.0 0 0 13.93 251.81
  L 21.68 243.44
  A 1.36 1.33 -26.3 0 0 22.04 242.41
  Q 21.92 240.98 20.50 240.97
  A 1.40 1.38 21.8 0 0 19.46 241.41
  L 13.26 248.12
  Q 12.77 248.66 12.25 248.14
  Z"
/>
<path d="
  M 12.0000 276.0200
  A 7.58 7.05 90.0 0 1 4.9500 268.4400
  A 7.58 7.05 90.0 0 1 12.0000 260.8600
  A 7.58 7.05 90.0 0 1 19.0500 268.4400
  A 7.58 7.05 90.0 0 1 12.0000 276.0200
  Z
  M 12.0097 273.9700
  A 5.53 5.04 89.9 0 0 17.0400 268.4312
  A 5.53 5.04 89.9 0 0 11.9903 262.9100
  A 5.53 5.04 89.9 0 0 6.9600 268.4488
  A 5.53 5.04 89.9 0 0 12.0097 273.9700
  Z"
/>
<path d="
  M 25.73 271.00
  L 21.97 270.99
  Q 21.19 270.99 21.21 270.22
  L 21.22 269.76
  Q 21.24 269.02 21.99 269.01
  L 25.72 268.99
  Q 26.81 268.98 25.96 268.29
  Q 24.59 267.19 25.38 266.22
  A 0.77 0.76 41.6 0 1 26.50 266.16
  L 29.74 269.27
  A 1.01 1.01 0.0 0 1 29.75 270.72
  L 26.68 273.69
  A 0.95 0.95 0.0 0 1 25.40 273.72
  Q 24.43 272.88 25.96 271.63
  Q 26.72 271.01 25.73 271.00
  Z"
/>
<path d="
  M 0.00 288.91
  L 0.00 286.20
  Q 0.93 279.68 7.76 278.49
  C 14.69 277.29 23.67 278.12 23.98 287.15
  C 24.03 288.77 22.82 289.84 21.33 290.15
  Q 9.60 292.62 0.00 288.91
  Z
  M 17.79 280.97
  C 14.05 279.67 6.92 279.30 3.70 282.56
  Q 2.01 284.27 2.13 287.52
  A 0.74 0.74 0.0 0 0 2.73 288.21
  Q 12.05 289.86 21.10 288.18
  Q 21.87 288.04 21.88 287.25
  Q 21.95 282.42 17.79 280.97
  Z"
/>
<path d="
  M 11.96 295.51
  A 1.47 1.47 0.0 0 1 10.49 296.98
  A 1.47 1.47 0.0 0 1 9.02 295.51
  A 1.47 1.47 0.0 0 1 10.49 294.04
  A 1.47 1.47 0.0 0 1 11.96 295.51
  Z"
/>
<path d="
  M 16.97 295.51
  A 1.47 1.47 0.0 0 1 15.50 296.98
  A 1.47 1.47 0.0 0 1 14.03 295.51
  A 1.47 1.47 0.0 0 1 15.50 294.04
  A 1.47 1.47 0.0 0 1 16.97 295.51
  Z"
/>
<path d="
  M 21.97 295.51
  A 1.47 1.47 0.0 0 1 20.50 296.98
  A 1.47 1.47 0.0 0 1 19.03 295.51
  A 1.47 1.47 0.0 0 1 20.50 294.04
  A 1.47 1.47 0.0 0 1 21.97 295.51
  Z"
/>
<path d="
  M 10.5000 308.9200
  A 4.98 4.49 90.0 0 1 6.0100 303.9400
  A 4.98 4.49 90.0 0 1 10.5000 298.9600
  A 4.98 4.49 90.0 0 1 14.9900 303.9400
  A 4.98 4.49 90.0 0 1 10.5000 308.9200
  Z"
/>
<path d="
  M 21.9922 309.9100
  A 4.48 3.99 90.1 0 1 18.0100 305.4230
  A 4.48 3.99 90.1 0 1 22.0078 300.9500
  A 4.48 3.99 90.1 0 1 25.9900 305.4370
  A 4.48 3.99 90.1 0 1 21.9922 309.9100
  Z"
/>
<path d="
  M 3.59 322.00
  A 2.57 2.57 0.0 0 1 1.02 319.43
  L 1.02 318.13
  A 7.30 7.15 0.0 0 1 8.32 310.98
  L 12.70 310.98
  A 7.30 7.15 -0.0 0 1 20.00 318.13
  L 20.00 319.43
  A 2.57 2.57 0.0 0 1 17.43 322.00
  L 3.59 322.00
  Z"
/>
<path d="
  M 21.95 319.43
  C 22.21 316.56 21.47 313.94 19.55 311.80
  Q 19.10 311.30 19.77 311.17
  Q 25.22 310.10 27.85 313.57
  C 29.27 315.45 29.78 319.19 26.77 319.81
  Q 24.81 320.21 22.37 319.94
  Q 21.91 319.89 21.95 319.43
  Z"
/>
<path d="
  M 0.00 342.63
  L 0.00 341.22
  Q 0.72 334.97 4.83 331.11
  C 10.64 325.67 19.66 325.70 25.37 331.21
  C 37.37 342.80 24.65 361.75 9.24 355.81
  Q 1.06 352.66 0.00 342.63
  Z
  M 13.66 340.73
  L 13.79 341.81
  Q 13.87 342.51 14.57 342.45
  L 18.72 342.08
  A 1.45 1.45 0.0 0 1 19.78 342.42
  Q 20.94 343.42 22.29 343.99
  C 25.52 345.33 23.07 350.84 21.88 352.72
  Q 21.39 353.50 22.14 352.96
  C 30.96 346.56 29.65 334.40 19.80 329.84
  Q 19.29 329.60 19.31 330.17
  Q 19.38 332.33 17.07 333.46
  A 1.75 1.75 0.0 0 0 16.23 335.72
  L 16.75 336.92
  A 0.92 0.92 0.0 0 1 15.52 338.12
  L 12.95 336.94
  Q 11.38 336.22 10.03 337.28
  Q 9.72 337.52 9.56 337.84
  Q 8.84 339.26 10.33 339.81
  Q 11.45 340.22 12.75 340.03
  Q 13.56 339.91 13.66 340.73
  Z
  M 4.33 334.73
  A 0.03 0.03 0.0 0 0 4.27 334.70
  C -1.86 344.76 6.07 356.80 17.77 354.71
  Q 18.40 354.60 18.27 353.97
  Q 17.87 352.11 16.82 350.84
  A 1.83 1.80 72.9 0 0 15.63 350.20
  Q 10.96 349.66 11.23 344.97
  A 2.83 2.82 6.5 0 0 8.87 342.02
  C 7.93 341.87 6.84 341.94 6.00 341.39
  Q 2.81 339.33 4.33 334.73
  Z"
/>
<path d="
  M 0.00 376.21
  L 0.00 373.68
  Q 0.87 367.49 5.04 363.81
  C 15.28 354.76 31.34 362.99 29.83 376.68
  C 28.50 388.86 14.03 394.18 5.04 386.15
  Q 0.84 382.40 0.00 376.21
  Z
  M 16.43 374.67
  Q 15.76 374.51 15.31 373.98
  A 1.16 1.14 65.0 0 0 14.26 373.59
  Q 13.63 373.68 13.40 374.26
  Q 13.21 374.73 13.42 375.19
  C 14.21 377.00 14.45 378.84 12.10 379.55
  Q 11.38 379.76 10.69 379.46
  Q 9.36 378.88 8.66 380.03
  A 1.97 1.97 0.0 0 1 5.25 379.93
  Q 4.68 378.88 4.42 377.72
  A 1.05 1.05 0.0 0 0 3.21 376.91
  L 2.80 376.98
  A 0.61 0.61 0.0 0 0 2.32 377.73
  Q 4.11 384.94 11.18 387.42
  Q 11.75 387.62 12.08 387.12
  C 12.86 385.95 14.14 385.16 15.59 385.37
  Q 18.18 385.74 20.22 384.35
  C 21.38 383.55 22.71 383.63 24.03 383.78
  Q 24.53 383.83 24.85 383.44
  C 29.42 377.95 28.85 370.49 23.83 365.46
  A 1.28 1.26 -25.6 0 0 22.76 365.09
  Q 20.51 365.36 18.41 365.25
  Q 18.08 365.24 17.83 365.47
  Q 17.72 365.57 17.61 365.66
  Q 16.98 366.17 17.73 366.46
  Q 19.44 367.13 19.48 368.92
  Q 19.49 369.43 19.13 369.79
  L 17.13 371.79
  Q 16.75 372.17 16.89 372.69
  Q 17.09 373.46 17.03 374.25
  Q 16.98 374.81 16.43 374.67
  Z"
/>
<path d="
  M 20.2758 372.8922
  A 0.71 0.71 0.0 0 1 19.2791 373.0145
  L 19.2319 372.9776
  A 0.71 0.71 0.0 0 1 19.1095 371.9810
  L 21.1042 369.4278
  A 0.71 0.71 0.0 0 1 22.1009 369.3055
  L 22.1481 369.3424
  A 0.71 0.71 0.0 0 1 22.2705 370.3390
  L 20.2758 372.8922
  Z"
/>
<path d="
  M 16.2154 381.5935
  A 1.92 1.01 19.9 0 1 14.0662 381.8897
  A 1.92 1.01 19.9 0 1 12.6046 380.2865
  A 1.92 1.01 19.9 0 1 14.7538 379.9903
  A 1.92 1.01 19.9 0 1 16.2154 381.5935
  Z"
/>
<path d="
  M 19.7322 380.2780
  A 1.25 0.69 -12.1 0 1 18.6546 381.2147
  A 1.25 0.69 -12.1 0 1 17.2878 380.8020
  A 1.25 0.69 -12.1 0 1 18.3654 379.8653
  A 1.25 0.69 -12.1 0 1 19.7322 380.2780
  Z"
/>
<path d="
  M 20.0217 383.0098
  A 1.94 1.03 -9.8 0 1 18.2853 384.3550
  A 1.94 1.03 -9.8 0 1 16.1983 383.6702
  A 1.94 1.03 -9.8 0 1 17.9347 382.3250
  A 1.94 1.03 -9.8 0 1 20.0217 383.0098
  Z"
/>
<path d="
  M 0.00 409.19
  L 0.00 406.65
  C 1.72 394.67 15.37 388.44 24.83 396.77
  C 33.01 403.97 31.08 416.45 21.63 421.35
  C 12.04 426.33 1.46 419.83 0.00 409.19
  Z
  M 20.87 415.93
  Q 20.07 416.70 19.29 416.23
  C 18.46 415.74 18.50 414.67 18.40 413.83
  C 18.14 411.84 16.24 411.29 14.72 412.55
  Q 14.25 412.93 13.66 412.79
  L 11.96 412.40
  Q 10.83 412.14 10.25 413.15
  Q 8.66 415.95 6.72 413.41
  Q 6.22 412.76 6.33 411.94
  C 6.67 409.36 9.54 409.37 11.45 408.51
  A 0.96 0.95 -15.8 0 0 12.01 407.52
  Q 11.63 404.54 14.65 403.36
  Q 17.17 402.37 19.70 401.55
  A 1.32 1.32 0.0 0 0 19.94 399.15
  C 17.64 397.84 16.52 399.68 14.52 399.51
  Q 13.67 399.43 13.38 398.54
  A 1.62 1.59 -43.0 0 1 13.43 397.43
  Q 13.84 396.42 14.70 395.63
  Q 15.41 394.97 14.44 395.05
  C 3.65 395.95 -1.32 406.97 4.67 415.91
  A 0.98 0.98 0.0 0 0 5.92 416.24
  C 9.71 414.40 10.17 419.60 13.95 419.06
  C 15.43 418.85 16.84 419.41 18.12 420.11
  A 1.53 1.53 0.0 0 0 19.40 420.20
  Q 23.35 418.72 25.79 415.21
  A 0.97 0.95 49.6 0 0 25.86 414.24
  C 25.28 413.03 24.04 410.81 22.48 410.86
  Q 21.48 410.89 20.97 411.64
  A 1.30 1.27 57.5 0 0 20.76 412.64
  L 21.19 414.93
  Q 21.30 415.51 20.87 415.93
  Z"
/>
<path d="
  M 10.47 401.68
  Q 9.72 403.32 9.58 405.22
  C 9.50 406.32 8.61 407.47 7.40 407.16
  A 1.16 1.15 -1.4 0 1 6.58 406.38
  Q 5.58 403.23 8.34 401.10
  Q 9.24 400.39 10.22 400.93
  A 0.58 0.57 26.8 0 1 10.47 401.68
  Z"
/>
<path d="
  M 13.99 444.53
  L 14.00 450.50
  Q 14.01 453.01 11.50 453.00
  L 10.06 453.00
  Q 7.60 452.99 7.27 450.56
  L 6.46 444.72
  A 0.88 0.87 83.8 0 0 5.52 443.96
  Q 1.56 444.29 1.07 440.52
  C 0.66 437.31 1.06 433.99 5.14 434.01
  Q 10.52 434.03 15.75 433.96
  C 19.21 433.92 21.97 430.77 24.90 429.36
  C 26.58 428.54 29.00 429.17 29.00 431.36
  Q 29.00 439.02 29.01 446.59
  C 29.02 448.98 26.29 449.50 24.57 448.51
  C 21.28 446.61 18.68 443.76 14.52 443.97
  Q 13.99 444.00 13.99 444.53
  Z
  M 16.30 442.06
  C 19.29 442.17 23.04 444.99 25.43 446.84
  A 0.98 0.97 18.8 0 0 27.00 446.07
  L 27.00 431.93
  A 0.97 0.97 0.0 0 0 25.45 431.16
  C 22.39 433.45 19.06 436.05 15.08 436.01
  Q 12.04 435.99 9.11 436.01
  Q 7.95 436.02 7.96 437.18
  L 8.00 440.57
  Q 8.02 442.02 9.48 442.00
  Q 13.07 441.94 16.30 442.06
  Z
  M 6.04 441.30
  L 6.02 436.64
  A 0.66 0.66 0.0 0 0 5.35 435.99
  L 4.68 435.99
  A 1.79 1.71 89.7 0 0 2.98 437.79
  L 3.00 440.19
  A 1.79 1.71 89.7 0 0 4.72 441.97
  L 5.39 441.97
  A 0.66 0.66 0.0 0 0 6.04 441.30
  Z
  M 8.49 444.78
  L 9.23 450.06
  Q 9.32 450.72 9.95 450.93
  Q 10.74 451.19 11.46 450.89
  Q 12.00 450.66 12.00 450.07
  L 12.00 444.89
  Q 12.00 444.03 11.14 444.01
  L 9.22 443.96
  A 0.73 0.72 -3.7 0 0 8.49 444.78
  Z"
/>
<path d="
  M 0.00 473.14
  L 0.00 464.76
  C 0.92 461.94 3.13 459.92 6.10 459.98
  Q 11.25 460.07 16.62 459.98
  C 20.01 459.92 22.68 462.16 22.98 465.58
  Q 23.01 466.03 23.47 466.01
  C 27.57 465.75 30.23 468.93 30.06 472.93
  C 29.86 477.48 31.07 481.92 25.45 483.86
  Q 25.00 484.02 25.00 484.50
  L 25.00 487.93
  A 1.00 1.00 0.0 0 1 23.37 488.71
  L 17.88 484.36
  Q 17.38 483.97 16.75 483.99
  C 14.09 484.09 10.74 484.42 8.77 482.25
  Q 7.92 481.31 7.13 482.31
  Q 6.55 483.04 5.75 482.81
  Q 4.92 482.58 4.96 481.62
  Q 5.04 480.03 5.00 478.58
  Q 4.98 478.05 4.49 477.89
  Q 1.10 476.75 0.00 473.14
  Z
  M 6.98 477.02
  L 7.02 479.17
  Q 7.03 479.86 7.57 479.43
  L 11.54 476.29
  A 1.19 1.17 -64.8 0 1 12.19 476.05
  C 15.13 475.88 20.68 477.03 20.92 472.31
  Q 21.09 469.01 20.97 465.74
  A 3.85 3.85 0.0 0 0 17.21 462.04
  Q 11.04 461.90 6.02 462.06
  Q 2.22 462.19 2.07 465.93
  C 1.94 469.32 0.71 475.73 6.07 476.06
  Q 6.97 476.12 6.98 477.02
  Z
  M 23.95 482.05
  C 26.75 481.88 28.08 479.96 28.05 477.26
  Q 28.02 473.98 27.89 471.38
  Q 27.82 469.99 26.77 469.08
  Q 25.63 468.10 23.94 467.93
  Q 22.96 467.82 22.97 468.81
  Q 22.99 470.27 23.02 471.73
  C 23.09 475.55 19.99 478.35 16.21 478.01
  C 13.55 477.77 12.00 477.94 10.03 480.14
  Q 9.68 480.53 10.08 480.87
  C 12.01 482.57 15.26 481.94 17.64 482.05
  Q 18.25 482.08 18.73 482.47
  L 22.32 485.36
  Q 22.98 485.88 22.99 485.04
  L 23.01 483.03
  A 0.99 0.99 0.0 0 1 23.95 482.05
  Z"
/>
<path d="
  M 0.00 508.21
  L 0.00 505.67
  Q 0.86 499.66 4.92 495.96
  C 15.18 486.61 31.58 495.09 29.80 508.96
  C 28.26 520.91 13.93 526.08 5.03 518.15
  Q 0.85 514.42 0.00 508.21
  Z
  M 15.80 509.93
  C 18.30 509.90 20.32 510.38 22.16 511.99
  C 22.91 512.65 23.35 513.52 24.06 514.20
  A 0.42 0.42 0.0 0 0 24.71 514.12
  Q 28.27 508.53 26.23 502.93
  C 22.96 493.96 10.53 492.04 5.14 500.26
  Q 0.85 506.82 5.22 514.02
  Q 5.65 514.73 6.12 514.04
  C 8.81 510.07 11.56 509.97 15.80 509.93
  Z"
/>
<path d="
  M 14.9913 507.9200
  A 4.98 4.49 90.1 0 1 10.5100 502.9322
  A 4.98 4.49 90.1 0 1 15.0087 497.9600
  A 4.98 4.49 90.1 0 1 19.4900 502.9478
  A 4.98 4.49 90.1 0 1 14.9913 507.9200
  Z"
/>
<path d="
  M 25.35 533.05
  C 28.14 537.47 28.92 541.96 26.61 546.68
  C 22.58 554.94 10.55 556.80 4.85 549.01
  C -1.27 540.66 3.17 529.71 13.50 528.14
  Q 13.96 528.08 14.05 527.62
  Q 14.08 527.41 13.94 527.23
  Q 13.81 527.06 13.60 527.03
  L 12.79 526.90
  Q 12.21 526.81 12.12 526.23
  Q 12.04 525.70 12.38 525.32
  Q 12.68 524.98 13.15 524.99
  Q 15.00 525.02 16.84 524.99
  Q 17.30 524.99 17.61 525.30
  Q 18.01 525.71 17.87 526.30
  A 0.79 0.76 1.5 0 1 17.22 526.90
  L 16.26 527.05
  Q 16.09 527.07 16.06 527.24
  L 15.98 527.65
  A 0.41 0.41 0.0 0 0 16.34 528.14
  Q 20.10 528.52 23.16 530.89
  Q 23.47 531.12 23.82 530.98
  Q 23.99 530.91 24.01 530.70
  Q 24.05 530.32 23.75 530.09
  Q 23.21 529.66 23.47 528.88
  Q 24.00 527.32 25.15 528.50
  L 27.87 531.29
  A 0.69 0.69 0.0 0 1 27.87 532.26
  Q 27.10 533.02 26.03 532.36
  Q 24.23 531.27 25.35 533.05
  Z
  M 25.96 541.00
  A 10.96 10.96 0.0 0 0 15.00 530.04
  A 10.96 10.96 0.0 0 0 4.04 541.00
  A 10.96 10.96 0.0 0 0 15.00 551.96
  A 10.96 10.96 0.0 0 0 25.96 541.00
  Z"
/>
<path d="
  M 17.47 542.10
  Q 17.68 542.31 17.83 542.56
  Q 18.10 543.02 17.82 543.49
  Q 17.58 543.89 17.12 543.93
  Q 16.60 543.97 16.25 543.59
  C 15.43 542.71 14.47 543.21 13.64 542.41
  Q 13.03 541.82 13.04 541.00
  Q 13.04 540.46 12.66 540.08
  L 8.14 535.50
  A 0.62 0.62 0.0 0 1 8.04 534.76
  L 8.23 534.42
  A 0.89 0.89 0.0 0 1 9.63 534.23
  L 13.94 538.55
  Q 14.37 538.97 14.97 539.02
  Q 16.85 539.17 16.98 541.07
  Q 17.02 541.68 17.47 542.10
  Z"
/>
<path d="
  M 0.00 571.13
  L 0.00 568.76
  C 1.12 565.19 3.94 562.84 7.70 562.96
  Q 11.74 563.10 15.88 562.95
  Q 18.18 562.87 19.95 563.74
  C 27.08 567.22 23.96 577.25 16.43 577.04
  Q 12.32 576.92 7.79 577.04
  C 3.92 577.14 1.09 574.86 0.00 571.13
  Z
  M 8.20 569.20
  A 0.52 0.52 0.0 0 1 7.80 568.80
  L 7.51 567.44
  A 0.52 0.52 0.0 0 0 6.50 567.44
  L 6.20 568.80
  A 0.52 0.52 0.0 0 1 5.80 569.20
  L 4.44 569.49
  A 0.52 0.52 0.0 0 0 4.44 570.50
  L 5.80 570.80
  A 0.52 0.52 0.0 0 1 6.20 571.20
  L 6.49 572.56
  A 0.52 0.52 0.0 0 0 7.50 572.56
  L 7.80 571.20
  A 0.52 0.52 0.0 0 1 8.20 570.80
  L 9.56 570.51
  A 0.52 0.52 0.0 0 0 9.56 569.50
  L 8.20 569.20
  Z
  M 19.90 568.26
  A 1.17 1.17 0.0 0 0 18.73 567.09
  A 1.17 1.17 0.0 0 0 17.56 568.26
  A 1.17 1.17 0.0 0 0 18.73 569.43
  A 1.17 1.17 0.0 0 0 19.90 568.26
  Z
  M 16.43 571.75
  A 1.18 1.18 0.0 0 0 15.25 570.57
  A 1.18 1.18 0.0 0 0 14.07 571.75
  A 1.18 1.18 0.0 0 0 15.25 572.93
  A 1.18 1.18 0.0 0 0 16.43 571.75
  Z"
/>
<path d="
  M 42.36 568.07
  L 33.87 576.50
  A 0.32 0.32 0.0 0 1 33.44 576.52
  L 32.45 575.67
  A 0.32 0.32 0.0 0 1 32.43 575.21
  L 41.04 566.55
  A 0.32 0.32 0.0 0 0 40.82 566.00
  L 35.57 565.96
  A 0.32 0.32 0.0 0 1 35.25 565.63
  L 35.30 564.30
  A 0.32 0.32 0.0 0 1 35.62 563.99
  L 44.61 564.05
  A 0.32 0.32 0.0 0 1 44.92 564.36
  L 45.02 573.42
  A 0.32 0.32 0.0 0 1 44.70 573.74
  L 43.41 573.76
  A 0.32 0.32 0.0 0 1 43.09 573.45
  L 42.91 568.28
  A 0.32 0.32 0.0 0 0 42.36 568.07
  Z"
/>
</g>
<g fill="#209af9">
<path d="
  M 46.96 24.39
  Q 47.27 25.71 45.48 26.88
  Q 45.01 27.18 45.01 27.75
  L 45.01 43.95
  A 3.03 3.03 0.0 0 1 41.98 46.98
  L 29.99 46.98
  L 30.02 24.75
  L 30.27 24.51
  Q 30.61 24.19 30.92 24.53
  Q 31.38 25.03 31.99 24.62
  Q 39.56 24.81 46.96 24.39
  Z"
/>
<path d="
  M 7.03 24.76
  Q 12.80 25.70 16.25 25.36
  Q 21.15 24.89 23.95 25.53
  L 24.13 46.99
  L 12.51 47.00
  Q 8.98 47.00 8.99 43.47
  L 8.99 27.71
  A 0.99 0.99 0.0 0 0 8.51 26.86
  Q 7.14 26.05 7.03 24.76
  Z"
/>
</g>
<path fill="#f03e78" d="
  M 39.80 11.58
  L 35.13 11.28
  Q 32.21 12.93 30.69 14.96
  Q 29.84 15.68 30.17 15.81
  L 30.02 24.75
  L 29.99 46.98
  L 24.13 46.99
  L 23.95 25.53
  L 23.85 15.78
  Q 23.54 14.90 23.11 14.75
  Q 21.51 12.61 18.73 11.36
  Q 17.12 11.10 14.32 12.25
  C 13.13 7.78 15.94 5.21 20.11 6.19
  Q 24.47 7.21 26.61 12.15
  Q 27.00 13.03 27.37 12.14
  Q 29.61 6.92 34.39 6.10
  C 38.00 5.48 40.60 7.67 39.80 11.58
  Z"
/>
<path fill="#65676b" d="
  M 14.95 597.00
  A 2.95 2.95 0.0 0 1 12.00 599.95
  A 2.95 2.95 0.0 0 1 9.05 597.00
  A 2.95 2.95 0.0 0 1 12.00 594.05
  A 2.95 2.95 0.0 0 1 14.95 597.00
  Z"
/>
<g fill="#bd0d2a">
<path d="
  M 18.73 11.36
  Q 19.91 14.37 22.58 15.08
  Q 22.78 15.13 22.91 15.06
  Q 23.08 14.97 23.11 14.75
  Q 23.54 14.90 23.85 15.78
  L 16.64 15.94
  L 14.32 12.25
  Q 17.12 11.10 18.73 11.36
  Z"
/>
<path d="
  M 39.80 11.58
  Q 39.48 13.50 37.35 15.94
  L 30.17 15.81
  Q 29.84 15.68 30.69 14.96
  Q 30.71 15.03 30.74 15.10
  Q 30.79 15.25 30.94 15.22
  Q 34.07 14.69 35.13 11.28
  L 39.80 11.58
  Z"
/>
</g>
<g fill="#64cdfe">
<path d="
  M 23.85 15.78
  L 23.95 25.53
  Q 21.15 24.89 16.25 25.36
  Q 12.80 25.70 7.03 24.76
  L 7.03 18.31
  A 2.30 2.29 -0.4 0 1 9.30 16.02
  L 16.64 15.94
  L 23.85 15.78
  Z"
/>
<path d="
  M 30.17 15.81
  L 37.35 15.94
  L 44.78 16.03
  A 2.20 2.19 -89.9 0 1 46.95 18.22
  L 46.96 24.39
  Q 39.56 24.81 31.99 24.62
  Q 31.38 25.03 30.92 24.53
  Q 30.61 24.19 30.27 24.51
  L 30.02 24.75
  L 30.17 15.81
  Z"
/>
</g>
</svg>
