<?xml version="1.0" encoding="UTF-8" standalone="no"?>
<!DOCTYPE svg PUBLIC "-//W3C//DTD SVG 1.1//EN" "http://www.w3.org/Graphics/SVG/1.1/DTD/svg11.dtd">
<svg xmlns="http://www.w3.org/2000/svg" version="1.1" viewBox="0.00 0.00 435.00 128.00">
<g stroke-width="2.00" fill="none" stroke-linecap="butt">
<path stroke="#757678" vector-effect="non-scaling-stroke" d="
  M 69.25 66.87
  L 83.33 66.88
  Q 85.75 66.88 86.89 64.75
  Q 87.21 64.15 86.98 63.63
  Q 86.11 61.62 84.03 61.62
  Q 77.17 61.61 69.48 61.64
  Q 68.87 61.64 68.87 61.04
  L 68.88 46.54
  Q 68.88 43.92 66.30 43.42
  Q 65.86 43.34 65.44 43.58
  Q 63.63 44.62 63.62 46.70
  L 63.62 61.26
  A 0.38 0.37 -0.0 0 1 63.24 61.63
  L 48.30 61.62
  Q 46.15 61.62 45.54 63.70
  Q 45.20 64.87 46.53 66.24
  A 2.10 2.10 0.0 0 0 48.04 66.88
  L 63.00 66.88
  A 0.63 0.62 89.5 0 1 63.62 67.50
  L 63.64 82.66
  A 2.40 2.40 0.0 0 0 65.58 85.00
  Q 66.40 85.15 67.25 84.92
  A 2.20 2.19 -7.6 0 0 68.88 82.80
  L 68.88 67.25
  A 0.37 0.37 0.0 0 1 69.25 66.87"
/>
<path stroke="#757678" vector-effect="non-scaling-stroke" d="
  M 201.09 90.64
  Q 203.58 91.05 205.93 92.14
  Q 208.25 93.21 210.74 93.60
  Q 226.67 96.08 237.81 84.88
  C 244.79 77.87 247.83 66.45 245.15 56.85
  Q 242.45 47.13 235.17 41.19
  C 223.65 31.78 207.24 32.19 196.35 42.08
  Q 184.38 52.94 186.93 70.14
  Q 187.20 71.90 187.95 73.53
  C 188.77 75.31 190.18 78.25 189.64 80.24
  Q 188.55 84.25 187.60 88.25
  C 186.95 90.97 189.09 93.36 191.87 92.93
  Q 195.99 92.30 200.43 90.70
  Q 200.75 90.58 201.09 90.64"
/>
<path stroke="#757678" vector-effect="non-scaling-stroke" d="
  M 378.50 83.76
  L 389.99 83.73
  A 3.84 3.83 79.6 0 0 393.56 78.54
  C 392.36 75.35 390.53 72.83 390.14 69.30
  Q 389.56 64.13 389.61 59.21
  C 389.69 50.67 386.74 43.76 379.73 38.66
  Q 375.11 35.29 369.17 34.55
  Q 362.62 33.73 356.87 36.35
  Q 346.11 41.25 343.33 53.00
  Q 342.53 56.36 342.73 66.17
  Q 342.83 71.35 339.47 77.39
  C 337.60 80.73 339.57 83.84 343.32 83.79
  Q 348.79 83.71 353.96 83.75
  Q 354.55 83.75 354.66 84.32
  C 357.26 97.32 375.15 97.51 377.80 84.34
  Q 377.92 83.76 378.50 83.76"
/>
<path stroke="#757678" vector-effect="non-scaling-stroke" d="
  M 220.99 62.58
  Q 217.66 60.38 214.33 57.89
  Q 210.44 54.98 207.63 58.65
  Q 204.08 63.30 200.35 68.25
  A 1.77 1.77 0.0 0 0 200.34 70.36
  Q 201.63 72.10 203.35 70.95
  Q 206.99 68.52 210.45 65.91
  A 0.92 0.91 -45.3 0 1 211.53 65.90
  L 219.17 71.36
  A 3.74 3.74 0.0 0 0 224.33 70.58
  L 232.26 60.15
  Q 232.61 59.68 232.44 59.12
  C 231.88 57.21 230.23 56.70 228.67 57.81
  Q 225.22 60.25 222.04 62.56
  Q 221.52 62.93 220.99 62.58"
/>
<path stroke="#757678" vector-effect="non-scaling-stroke" d="
  M 372.19 83.73
  L 360.33 83.77
  A 0.11 0.11 0.0 0 0 360.22 83.88
  L 360.22 83.94
  A 5.86 4.89 -0.2 0 0 366.10 88.81
  L 366.46 88.81
  A 5.86 4.89 -0.2 0 0 372.30 83.90
  L 372.30 83.84
  A 0.11 0.11 0.0 0 0 372.19 83.73"
/>
</g>
<g fill="#e4e6eb">
<path d="
  M 128.60 64.43
  A 62.46 62.46 0.0 0 1 66.14 126.89
  A 62.46 62.46 0.0 0 1 3.68 64.43
  A 62.46 62.46 0.0 0 1 66.14 1.97
  A 62.46 62.46 0.0 0 1 128.60 64.43
  Z
  M 69.25 66.87
  L 83.33 66.88
  Q 85.75 66.88 86.89 64.75
  Q 87.21 64.15 86.98 63.63
  Q 86.11 61.62 84.03 61.62
  Q 77.17 61.61 69.48 61.64
  Q 68.87 61.64 68.87 61.04
  L 68.88 46.54
  Q 68.88 43.92 66.30 43.42
  Q 65.86 43.34 65.44 43.58
  Q 63.63 44.62 63.62 46.70
  L 63.62 61.26
  A 0.38 0.37 -0.0 0 1 63.24 61.63
  L 48.30 61.62
  Q 46.15 61.62 45.54 63.70
  Q 45.20 64.87 46.53 66.24
  A 2.10 2.10 0.0 0 0 48.04 66.88
  L 63.00 66.88
  A 0.63 0.62 89.5 0 1 63.62 67.50
  L 63.64 82.66
  A 2.40 2.40 0.0 0 0 65.58 85.00
  Q 66.40 85.15 67.25 84.92
  A 2.20 2.19 -7.6 0 0 68.88 82.80
  L 68.88 67.25
  A 0.37 0.37 0.0 0 1 69.25 66.87
  Z"
/>
<path d="
  M 157.88 42.95
  Q 169.74 12.82 199.83 4.06
  C 217.33 -1.03 236.47 2.65 251.24 12.61
  Q 271.50 26.26 277.30 51.33
  Q 277.85 53.70 278.12 56.29
  Q 278.38 58.86 278.69 61.46
  Q 279.13 65.30 278.42 70.70
  Q 277.79 75.51 276.87 79.28
  Q 270.00 107.45 243.71 120.60
  Q 232.06 126.42 217.53 126.84
  Q 214.67 126.92 211.76 126.42
  C 208.99 125.94 206.28 126.07 203.54 125.53
  C 180.26 120.85 162.63 103.56 156.28 80.91
  Q 153.90 72.44 153.96 61.89
  C 153.98 58.79 154.81 55.31 155.28 52.10
  Q 155.88 48.03 157.88 42.95
  Z
  M 201.09 90.64
  Q 203.58 91.05 205.93 92.14
  Q 208.25 93.21 210.74 93.60
  Q 226.67 96.08 237.81 84.88
  C 244.79 77.87 247.83 66.45 245.15 56.85
  Q 242.45 47.13 235.17 41.19
  C 223.65 31.78 207.24 32.19 196.35 42.08
  Q 184.38 52.94 186.93 70.14
  Q 187.20 71.90 187.95 73.53
  C 188.77 75.31 190.18 78.25 189.64 80.24
  Q 188.55 84.25 187.60 88.25
  C 186.95 90.97 189.09 93.36 191.87 92.93
  Q 195.99 92.30 200.43 90.70
  Q 200.75 90.58 201.09 90.64
  Z"
/>
<path d="
  M 307.84 44.00
  Q 317.90 15.61 346.40 5.21
  Q 362.23 -0.57 379.58 3.23
  C 403.94 8.57 422.52 27.20 427.71 51.39
  Q 430.78 65.69 426.97 80.42
  C 420.97 103.63 403.23 119.91 379.77 125.55
  C 377.10 126.19 373.81 126.20 370.85 126.67
  C 368.09 127.11 365.00 126.83 362.13 126.48
  Q 358.76 126.07 355.10 125.64
  C 349.50 124.98 342.95 122.72 337.90 119.99
  Q 313.30 106.69 306.33 79.73
  Q 305.38 76.04 304.81 71.86
  Q 304.30 68.01 304.31 64.23
  Q 304.37 53.79 307.84 44.00
  Z
  M 378.50 83.76
  L 389.99 83.73
  A 3.84 3.83 79.6 0 0 393.56 78.54
  C 392.36 75.35 390.53 72.83 390.14 69.30
  Q 389.56 64.13 389.61 59.21
  C 389.69 50.67 386.74 43.76 379.73 38.66
  Q 375.11 35.29 369.17 34.55
  Q 362.62 33.73 356.87 36.35
  Q 346.11 41.25 343.33 53.00
  Q 342.53 56.36 342.73 66.17
  Q 342.83 71.35 339.47 77.39
  C 337.60 80.73 339.57 83.84 343.32 83.79
  Q 348.79 83.71 353.96 83.75
  Q 354.55 83.75 354.66 84.32
  C 357.26 97.32 375.15 97.51 377.80 84.34
  Q 377.92 83.76 378.50 83.76
  Z"
/>
<path d="
  M 222.04 62.56
  Q 225.22 60.25 228.67 57.81
  C 230.23 56.70 231.88 57.21 232.44 59.12
  Q 232.61 59.68 232.26 60.15
  L 224.33 70.58
  A 3.74 3.74 0.0 0 1 219.17 71.36
  L 211.53 65.90
  A 0.92 0.91 -45.3 0 0 210.45 65.91
  Q 206.99 68.52 203.35 70.95
  Q 201.63 72.10 200.34 70.36
  A 1.77 1.77 0.0 0 1 200.35 68.25
  Q 204.08 63.30 207.63 58.65
  Q 210.44 54.98 214.33 57.89
  Q 217.66 60.38 220.99 62.58
  Q 221.52 62.93 222.04 62.56
  Z"
/>
<path d="
  M 372.19 83.73
  A 0.11 0.11 0.0 0 1 372.30 83.84
  L 372.30 83.90
  A 5.86 4.89 -0.2 0 1 366.46 88.81
  L 366.10 88.81
  A 5.86 4.89 -0.2 0 1 360.22 83.94
  L 360.22 83.88
  A 0.11 0.11 0.0 0 1 360.33 83.77
  L 372.19 83.73
  Z"
/>
</g>
<g fill="#050505">
<path d="
  M 200.43 90.70
  Q 195.99 92.30 191.87 92.93
  C 189.09 93.36 186.95 90.97 187.60 88.25
  Q 188.55 84.25 189.64 80.24
  C 190.18 78.25 188.77 75.31 187.95 73.53
  Q 187.20 71.90 186.93 70.14
  Q 184.38 52.94 196.35 42.08
  C 207.24 32.19 223.65 31.78 235.17 41.19
  Q 242.45 47.13 245.15 56.85
  C 247.83 66.45 244.79 77.87 237.81 84.88
  Q 226.67 96.08 210.74 93.60
  Q 208.25 93.21 205.93 92.14
  Q 203.58 91.05 201.09 90.64
  Q 200.75 90.58 200.43 90.70
  Z
  M 220.99 62.58
  Q 217.66 60.38 214.33 57.89
  Q 210.44 54.98 207.63 58.65
  Q 204.08 63.30 200.35 68.25
  A 1.77 1.77 0.0 0 0 200.34 70.36
  Q 201.63 72.10 203.35 70.95
  Q 206.99 68.52 210.45 65.91
  A 0.92 0.91 -45.3 0 1 211.53 65.90
  L 219.17 71.36
  A 3.74 3.74 0.0 0 0 224.33 70.58
  L 232.26 60.15
  Q 232.61 59.68 232.44 59.12
  C 231.88 57.21 230.23 56.70 228.67 57.81
  Q 225.22 60.25 222.04 62.56
  Q 221.52 62.93 220.99 62.58
  Z"
/>
<path d="
  M 377.80 84.34
  C 375.15 97.51 357.26 97.32 354.66 84.32
  Q 354.55 83.75 353.96 83.75
  Q 348.79 83.71 343.32 83.79
  C 339.57 83.84 337.60 80.73 339.47 77.39
  Q 342.83 71.35 342.73 66.17
  Q 342.53 56.36 343.33 53.00
  Q 346.11 41.25 356.87 36.35
  Q 362.62 33.73 369.17 34.55
  Q 375.11 35.29 379.73 38.66
  C 386.74 43.76 389.69 50.67 389.61 59.21
  Q 389.56 64.13 390.14 69.30
  C 390.53 72.83 392.36 75.35 393.56 78.54
  A 3.84 3.83 79.6 0 1 389.99 83.73
  L 378.50 83.76
  Q 377.92 83.76 377.80 84.34
  Z
  M 372.19 83.73
  L 360.33 83.77
  A 0.11 0.11 0.0 0 0 360.22 83.88
  L 360.22 83.94
  A 5.86 4.89 -0.2 0 0 366.10 88.81
  L 366.46 88.81
  A 5.86 4.89 -0.2 0 0 372.30 83.90
  L 372.30 83.84
  A 0.11 0.11 0.0 0 0 372.19 83.73
  Z"
/>
<path d="
  M 69.25 66.87
  A 0.37 0.37 0.0 0 0 68.88 67.25
  L 68.88 82.80
  A 2.20 2.19 -7.6 0 1 67.25 84.92
  Q 66.40 85.15 65.58 85.00
  A 2.40 2.40 0.0 0 1 63.64 82.66
  L 63.62 67.50
  A 0.63 0.62 89.5 0 0 63.00 66.88
  L 48.04 66.88
  A 2.10 2.10 0.0 0 1 46.53 66.24
  Q 45.20 64.87 45.54 63.70
  Q 46.15 61.62 48.30 61.62
  L 63.24 61.63
  A 0.38 0.37 0.0 0 0 63.62 61.26
  L 63.62 46.70
  Q 63.63 44.62 65.44 43.58
  Q 65.86 43.34 66.30 43.42
  Q 68.88 43.92 68.88 46.54
  L 68.87 61.04
  Q 68.87 61.64 69.48 61.64
  Q 77.17 61.61 84.03 61.62
  Q 86.11 61.62 86.98 63.63
  Q 87.21 64.15 86.89 64.75
  Q 85.75 66.88 83.33 66.88
  L 69.25 66.87
  Z"
/>
</g>
</svg>
