<?xml version="1.0" encoding="UTF-8" standalone="no"?>
<!DOCTYPE svg PUBLIC "-//W3C//DTD SVG 1.1//EN" "http://www.w3.org/Graphics/SVG/1.1/DTD/svg11.dtd">
<svg xmlns="http://www.w3.org/2000/svg" version="1.1" viewBox="0.00 0.00 86.00 73.00">
<g stroke-width="2.00" fill="none" stroke-linecap="butt">
<path stroke="#757678" vector-effect="non-scaling-stroke" d="
  M 39.67 27.57
  A 4.13 4.13 0.0 0 0 35.54 23.44
  A 4.13 4.13 0.0 0 0 31.41 27.57
  A 4.13 4.13 0.0 0 0 35.54 31.70
  A 4.13 4.13 0.0 0 0 39.67 27.57"
/>
<path stroke="#757678" vector-effect="non-scaling-stroke" d="
  M 50.78 27.53
  A 4.10 4.10 0.0 0 0 46.68 23.43
  A 4.10 4.10 0.0 0 0 42.58 27.53
  A 4.10 4.10 0.0 0 0 46.68 31.63
  A 4.10 4.10 0.0 0 0 50.78 27.53"
/>
<path stroke="#757678" vector-effect="non-scaling-stroke" d="
  M 61.83 27.55
  A 4.09 4.09 0.0 0 0 57.74 23.46
  A 4.09 4.09 0.0 0 0 53.65 27.55
  A 4.09 4.09 0.0 0 0 57.74 31.64
  A 4.09 4.09 0.0 0 0 61.83 27.55"
/>
<path stroke="#757678" vector-effect="non-scaling-stroke" d="
  M 39.67 38.65
  A 4.11 4.11 0.0 0 0 35.56 34.54
  A 4.11 4.11 0.0 0 0 31.45 38.65
  A 4.11 4.11 0.0 0 0 35.56 42.76
  A 4.11 4.11 0.0 0 0 39.67 38.65"
/>
<path stroke="#757678" vector-effect="non-scaling-stroke" d="
  M 50.81 38.65
  A 4.12 4.12 0.0 0 0 46.69 34.53
  A 4.12 4.12 0.0 0 0 42.57 38.65
  A 4.12 4.12 0.0 0 0 46.69 42.77
  A 4.12 4.12 0.0 0 0 50.81 38.65"
/>
<path stroke="#757678" vector-effect="non-scaling-stroke" d="
  M 61.91 38.68
  A 4.13 4.13 0.0 0 0 57.78 34.55
  A 4.13 4.13 0.0 0 0 53.65 38.68
  A 4.13 4.13 0.0 0 0 57.78 42.81
  A 4.13 4.13 0.0 0 0 61.91 38.68"
/>
<path stroke="#757678" vector-effect="non-scaling-stroke" d="
  M 39.69 49.79
  A 4.12 4.12 0.0 0 0 35.57 45.67
  A 4.12 4.12 0.0 0 0 31.45 49.79
  A 4.12 4.12 0.0 0 0 35.57 53.91
  A 4.12 4.12 0.0 0 0 39.69 49.79"
/>
<path stroke="#757678" vector-effect="non-scaling-stroke" d="
  M 50.75 49.78
  A 4.11 4.11 0.0 0 0 46.64 45.67
  A 4.11 4.11 0.0 0 0 42.53 49.78
  A 4.11 4.11 0.0 0 0 46.64 53.89
  A 4.11 4.11 0.0 0 0 50.75 49.78"
/>
<path stroke="#757678" vector-effect="non-scaling-stroke" d="
  M 61.90 49.78
  A 4.12 4.12 0.0 0 0 57.78 45.66
  A 4.12 4.12 0.0 0 0 53.66 49.78
  A 4.12 4.12 0.0 0 0 57.78 53.90
  A 4.12 4.12 0.0 0 0 61.90 49.78"
/>
</g>
<path fill="#e4e6eb" d="
  M 80.13 38.28
  A 33.15 33.15 0.0 0 1 46.98 71.43
  A 33.15 33.15 0.0 0 1 13.83 38.28
  A 33.15 33.15 0.0 0 1 46.98 5.13
  A 33.15 33.15 0.0 0 1 80.13 38.28
  Z
  M 39.67 27.57
  A 4.13 4.13 0.0 0 0 35.54 23.44
  A 4.13 4.13 0.0 0 0 31.41 27.57
  A 4.13 4.13 0.0 0 0 35.54 31.70
  A 4.13 4.13 0.0 0 0 39.67 27.57
  Z
  M 50.78 27.53
  A 4.10 4.10 0.0 0 0 46.68 23.43
  A 4.10 4.10 0.0 0 0 42.58 27.53
  A 4.10 4.10 0.0 0 0 46.68 31.63
  A 4.10 4.10 0.0 0 0 50.78 27.53
  Z
  M 61.83 27.55
  A 4.09 4.09 0.0 0 0 57.74 23.46
  A 4.09 4.09 0.0 0 0 53.65 27.55
  A 4.09 4.09 0.0 0 0 57.74 31.64
  A 4.09 4.09 0.0 0 0 61.83 27.55
  Z
  M 39.67 38.65
  A 4.11 4.11 0.0 0 0 35.56 34.54
  A 4.11 4.11 0.0 0 0 31.45 38.65
  A 4.11 4.11 0.0 0 0 35.56 42.76
  A 4.11 4.11 0.0 0 0 39.67 38.65
  Z
  M 50.81 38.65
  A 4.12 4.12 0.0 0 0 46.69 34.53
  A 4.12 4.12 0.0 0 0 42.57 38.65
  A 4.12 4.12 0.0 0 0 46.69 42.77
  A 4.12 4.12 0.0 0 0 50.81 38.65
  Z
  M 61.91 38.68
  A 4.13 4.13 0.0 0 0 57.78 34.55
  A 4.13 4.13 0.0 0 0 53.65 38.68
  A 4.13 4.13 0.0 0 0 57.78 42.81
  A 4.13 4.13 0.0 0 0 61.91 38.68
  Z
  M 39.69 49.79
  A 4.12 4.12 0.0 0 0 35.57 45.67
  A 4.12 4.12 0.0 0 0 31.45 49.79
  A 4.12 4.12 0.0 0 0 35.57 53.91
  A 4.12 4.12 0.0 0 0 39.69 49.79
  Z
  M 50.75 49.78
  A 4.11 4.11 0.0 0 0 46.64 45.67
  A 4.11 4.11 0.0 0 0 42.53 49.78
  A 4.11 4.11 0.0 0 0 46.64 53.89
  A 4.11 4.11 0.0 0 0 50.75 49.78
  Z
  M 61.90 49.78
  A 4.12 4.12 0.0 0 0 57.78 45.66
  A 4.12 4.12 0.0 0 0 53.66 49.78
  A 4.12 4.12 0.0 0 0 57.78 53.90
  A 4.12 4.12 0.0 0 0 61.90 49.78
  Z"
/>
<g fill="#050505">
<path d="
  M 39.67 27.57
  A 4.13 4.13 0.0 0 1 35.54 31.70
  A 4.13 4.13 0.0 0 1 31.41 27.57
  A 4.13 4.13 0.0 0 1 35.54 23.44
  A 4.13 4.13 0.0 0 1 39.67 27.57
  Z"
/>
<path d="
  M 50.78 27.53
  A 4.10 4.10 0.0 0 1 46.68 31.63
  A 4.10 4.10 0.0 0 1 42.58 27.53
  A 4.10 4.10 0.0 0 1 46.68 23.43
  A 4.10 4.10 0.0 0 1 50.78 27.53
  Z"
/>
<path d="
  M 61.83 27.55
  A 4.09 4.09 0.0 0 1 57.74 31.64
  A 4.09 4.09 0.0 0 1 53.65 27.55
  A 4.09 4.09 0.0 0 1 57.74 23.46
  A 4.09 4.09 0.0 0 1 61.83 27.55
  Z"
/>
<path d="
  M 39.67 38.65
  A 4.11 4.11 0.0 0 1 35.56 42.76
  A 4.11 4.11 0.0 0 1 31.45 38.65
  A 4.11 4.11 0.0 0 1 35.56 34.54
  A 4.11 4.11 0.0 0 1 39.67 38.65
  Z"
/>
<path d="
  M 50.81 38.65
  A 4.12 4.12 0.0 0 1 46.69 42.77
  A 4.12 4.12 0.0 0 1 42.57 38.65
  A 4.12 4.12 0.0 0 1 46.69 34.53
  A 4.12 4.12 0.0 0 1 50.81 38.65
  Z"
/>
<path d="
  M 61.91 38.68
  A 4.13 4.13 0.0 0 1 57.78 42.81
  A 4.13 4.13 0.0 0 1 53.65 38.68
  A 4.13 4.13 0.0 0 1 57.78 34.55
  A 4.13 4.13 0.0 0 1 61.91 38.68
  Z"
/>
<path d="
  M 39.69 49.79
  A 4.12 4.12 0.0 0 1 35.57 53.91
  A 4.12 4.12 0.0 0 1 31.45 49.79
  A 4.12 4.12 0.0 0 1 35.57 45.67
  A 4.12 4.12 0.0 0 1 39.69 49.79
  Z"
/>
<path d="
  M 50.75 49.78
  A 4.11 4.11 0.0 0 1 46.64 53.89
  A 4.11 4.11 0.0 0 1 42.53 49.78
  A 4.11 4.11 0.0 0 1 46.64 45.67
  A 4.11 4.11 0.0 0 1 50.75 49.78
  Z"
/>
<path d="
  M 61.90 49.78
  A 4.12 4.12 0.0 0 1 57.78 53.90
  A 4.12 4.12 0.0 0 1 53.66 49.78
  A 4.12 4.12 0.0 0 1 57.78 45.66
  A 4.12 4.12 0.0 0 1 61.90 49.78
  Z"
/>
</g>
</svg>
