<?xml version="1.0" encoding="UTF-8" standalone="no"?>
<!DOCTYPE svg PUBLIC "-//W3C//DTD SVG 1.1//EN" "http://www.w3.org/Graphics/SVG/1.1/DTD/svg11.dtd">
<svg xmlns="http://www.w3.org/2000/svg" version="1.1" viewBox="0.00 0.00 1280.00 148.00">
<g fill="#65676b">
<path d="
  M 897.15 78.56
  A 62.69 62.69 0.0 0 1 834.46 141.25
  A 62.69 62.69 0.0 0 1 771.77 78.56
  A 62.69 62.69 0.0 0 1 834.46 15.87
  A 62.69 62.69 0.0 0 1 897.15 78.56
  Z
  M 822.13 98.22
  Q 829.94 97.69 839.95 97.80
  Q 849.53 97.90 854.92 99.87
  C 862.20 102.52 866.90 107.84 870.28 114.71
  A 0.74 0.72 54.2 0 0 871.45 114.91
  Q 877.00 109.33 880.92 101.54
  A 0.88 0.88 0.0 0 0 880.36 100.29
  C 868.29 97.06 860.62 87.75 862.35 74.82
  Q 863.84 63.63 874.95 58.63
  C 876.53 57.93 878.47 57.43 880.11 56.87
  Q 881.57 56.37 880.83 55.02
  Q 866.87 29.67 839.15 26.85
  Q 828.93 25.81 819.13 28.87
  Q 798.46 35.33 787.86 55.49
  A 0.96 0.95 21.1 0 0 788.48 56.87
  C 796.10 58.74 801.52 61.73 804.87 69.39
  C 808.49 77.66 807.33 87.34 800.82 93.72
  C 797.24 97.24 793.31 98.75 788.67 100.29
  Q 787.27 100.75 788.00 102.04
  Q 792.06 109.20 797.34 114.74
  A 0.58 0.57 -43.2 0 0 798.15 114.76
  Q 798.87 114.09 799.31 113.22
  Q 803.57 104.71 811.73 101.03
  Q 817.18 98.57 822.13 98.22
  Z
  M 783.19 70.04
  L 782.62 87.09
  A 2.30 2.30 0.0 0 0 784.84 89.46
  L 785.01 89.47
  A 10.65 10.45 1.9 0 0 796.00 79.38
  L 796.03 78.62
  A 10.65 10.45 1.9 0 0 785.73 67.82
  L 785.56 67.81
  A 2.30 2.30 0.0 0 0 783.19 70.04
  Z
  M 885.86 87.27
  L 886.16 69.74
  A 1.95 1.95 0.0 0 0 884.25 67.75
  L 883.30 67.74
  A 10.34 10.24 -89.0 0 0 872.88 77.90
  L 872.86 78.66
  A 10.34 10.24 -89.0 0 0 882.92 89.17
  L 883.87 89.19
  A 1.95 1.95 0.0 0 0 885.86 87.27
  Z
  M 858.07 115.19
  Q 853.31 109.41 846.56 109.05
  Q 837.25 108.56 823.56 108.92
  Q 819.58 109.02 816.69 110.57
  Q 810.42 113.93 807.75 120.78
  A 2.29 2.28 -63.9 0 0 808.70 123.57
  Q 818.44 129.38 829.78 130.24
  Q 845.73 131.45 860.44 123.81
  Q 861.02 123.51 861.08 122.85
  Q 861.40 119.23 858.07 115.19
  Z"
/>
<path d="
  M 523.5440 93.6695
  A 28.53 28.53 0.0 0 1 494.9643 122.1497
  L 426.5044 122.0302
  A 28.53 28.53 0.0 0 1 398.0242 93.4504
  L 398.0960 52.3105
  A 28.53 28.53 0.0 0 1 426.6757 23.8303
  L 495.1356 23.9498
  A 28.53 28.53 0.0 0 1 523.6158 52.5296
  L 523.5440 93.6695
  Z
  M 512.7338 51.9609
  A 16.98 16.98 0.0 0 0 495.8132 34.9217
  L 426.1936 34.6787
  A 16.98 16.98 0.0 0 0 409.1545 51.5993
  L 409.0062 94.0791
  A 16.98 16.98 0.0 0 0 425.9268 111.1183
  L 495.5464 111.3613
  A 16.98 16.98 0.0 0 0 512.5855 94.4407
  L 512.7338 51.9609
  Z"
/>
<path d="
  M 1268.73 83.78
  A 38.36 38.36 0.0 0 1 1230.37 122.14
  L 1181.55 122.14
  A 38.36 38.36 0.0 0 1 1143.19 83.78
  L 1143.19 73.26
  A 38.36 38.36 0.0 0 1 1181.55 34.90
  L 1230.37 34.90
  A 38.36 38.36 0.0 0 1 1268.73 73.26
  L 1268.73 83.78
  Z
  M 1257.8885 73.3213
  A 27.34 27.34 0.0 0 0 1230.6441 45.8860
  L 1181.4844 45.7144
  A 27.34 27.34 0.0 0 0 1154.0492 72.9588
  L 1154.0115 83.7587
  A 27.34 27.34 0.0 0 0 1181.2559 111.1940
  L 1230.4156 111.3656
  A 27.34 27.34 0.0 0 0 1257.8508 84.1212
  L 1257.8885 73.3213
  Z"
/>
<path d="
  M 856.17 67.58
  A 21.73 21.73 0.0 0 1 834.44 89.31
  A 21.73 21.73 0.0 0 1 812.71 67.58
  A 21.73 21.73 0.0 0 1 834.44 45.85
  A 21.73 21.73 0.0 0 1 856.17 67.58
  Z
  M 835.1241 78.4609
  A 10.86 10.72 86.6 0 0 845.1811 66.9842
  A 10.86 10.72 86.6 0 0 833.8359 56.7791
  A 10.86 10.72 86.6 0 0 823.7789 68.2558
  A 10.86 10.72 86.6 0 0 835.1241 78.4609
  Z"
/>
<path d="
  M 474.45 77.77
  L 455.29 88.86
  A 5.45 5.45 0.0 0 1 447.11 84.13
  L 447.13 62.00
  A 5.45 5.45 0.0 0 1 455.30 57.28
  L 474.45 68.33
  A 5.45 5.45 0.0 0 1 474.45 77.77
  Z"
/>
<path d="
  M 1178.66 71.72
  C 1178.52 68.15 1178.08 62.36 1179.64 59.20
  Q 1181.26 55.91 1185.96 57.22
  Q 1189.09 58.09 1189.17 61.28
  Q 1189.28 65.85 1189.22 71.38
  A 1.48 1.48 0.0 0 0 1190.63 72.88
  Q 1194.38 73.07 1198.98 72.92
  C 1206.99 72.65 1208.66 82.93 1200.57 83.73
  Q 1195.77 84.21 1191.03 83.99
  A 1.60 1.59 3.1 0 0 1189.36 85.48
  Q 1189.12 89.20 1189.28 93.29
  C 1189.59 101.10 1179.23 103.58 1178.69 94.60
  Q 1178.39 89.64 1178.52 85.41
  A 1.29 1.29 0.0 0 0 1177.24 84.08
  Q 1171.88 84.03 1167.18 83.76
  C 1160.26 83.37 1161.35 72.85 1168.34 72.94
  Q 1173.05 73.01 1177.46 72.98
  A 1.21 1.20 88.9 0 0 1178.66 71.72
  Z"
/>
<path d="
  M 1244.08 67.63
  A 8.08 8.08 0.0 0 1 1236.00 75.71
  A 8.08 8.08 0.0 0 1 1227.92 67.63
  A 8.08 8.08 0.0 0 1 1236.00 59.55
  A 8.08 8.08 0.0 0 1 1244.08 67.63
  Z"
/>
<path d="
  M 1233.11 89.51
  A 8.05 8.05 0.0 0 1 1225.06 97.56
  A 8.05 8.05 0.0 0 1 1217.01 89.51
  A 8.05 8.05 0.0 0 1 1225.06 81.46
  A 8.05 8.05 0.0 0 1 1233.11 89.51
  Z"
/>
<path d="
  M 487.81 136.41
  A 4.98 4.98 0.0 0 1 482.83 141.39
  L 438.89 141.39
  A 4.98 4.98 0.0 0 1 433.91 136.41
  L 433.91 135.49
  A 4.98 4.98 0.0 0 1 438.89 130.51
  L 482.83 130.51
  A 4.98 4.98 0.0 0 1 487.81 135.49
  L 487.81 136.41
  Z"
/>
</g>
<path fill="#0866ff" d="
  M 50.55 138.24
  C 39.35 137.72 32.89 131.37 30.30 120.59
  Q 29.79 118.47 29.73 116.37
  Q 29.13 93.80 29.48 68.88
  Q 29.57 62.36 31.28 57.92
  Q 33.92 51.08 40.05 46.11
  Q 53.03 35.57 69.63 23.73
  C 79.81 16.47 89.27 12.88 100.88 18.66
  Q 106.73 21.58 112.75 26.01
  Q 129.45 38.31 140.72 47.63
  C 147.33 53.10 149.51 61.87 149.61 70.09
  Q 149.89 94.11 149.51 112.48
  Q 149.41 116.93 148.35 121.65
  C 146.40 130.23 140.56 135.96 131.74 137.70
  C 128.28 138.39 124.69 139.07 121.11 139.07
  Q 94.25 139.08 67.63 139.06
  C 61.91 139.05 56.32 138.51 50.55 138.24
  Z
  M 105.83 127.08
  C 105.99 116.36 105.86 105.24 105.95 94.57
  C 106.00 88.62 102.97 83.82 96.48 83.94
  Q 88.94 84.08 81.85 83.95
  C 78.33 83.88 75.35 85.86 73.80 89.08
  Q 72.63 91.48 72.68 95.73
  Q 72.83 111.91 72.70 127.09
  A 0.98 0.98 0.0 0 0 73.68 128.08
  L 104.81 128.09
  A 1.02 1.02 0.0 0 0 105.83 127.08
  Z"
/>
</svg>
